<svg xmlns="http://www.w3.org/2000/svg" viewBox="0 0 400 200" preserveAspectRatio="xMidYMid slice">
  <rect width="400" height="200" fill="#fff7ed"/>
  <g fill="none" stroke="#FB923C" stroke-width="1.8" opacity="0.45">
    <!-- row 1 -->
    <polygon points="50,10 80,28 80,63 50,81 20,63 20,28"/>
    <polygon points="110,10 140,28 140,63 110,81 80,63 80,28"/>
    <polygon points="170,10 200,28 200,63 170,81 140,63 140,28"/>
    <polygon points="230,10 260,28 260,63 230,81 200,63 200,28"/>
    <polygon points="290,10 320,28 320,63 290,81 260,63 260,28"/>
    <polygon points="350,10 380,28 380,63 350,81 320,63 320,28"/>
    <!-- row 2 (offset) -->
    <polygon points="20,81 50,99 50,134 20,152 -10,134 -10,99"/>
    <polygon points="80,81 110,99 110,134 80,152 50,134 50,99"/>
    <polygon points="140,81 170,99 170,134 140,152 110,134 110,99"/>
    <polygon points="200,81 230,99 230,134 200,152 170,134 170,99"/>
    <polygon points="260,81 290,99 290,134 260,152 230,134 230,99"/>
    <polygon points="320,81 350,99 350,134 320,152 290,134 290,99"/>
    <polygon points="380,81 410,99 410,134 380,152 350,134 350,99"/>
    <!-- row 3 -->
    <polygon points="50,152 80,170 80,200 50,200 20,200 20,170"/>
    <polygon points="110,152 140,170 140,200 110,200 80,200 80,170"/>
    <polygon points="170,152 200,170 200,200 170,200 140,200 140,170"/>
    <polygon points="230,152 260,170 260,200 230,200 200,200 200,170"/>
    <polygon points="290,152 320,170 320,200 290,200 260,200 260,170"/>
    <polygon points="350,152 380,170 380,200 350,200 320,200 320,170"/>
  </g>
  <!-- filled accent hexes -->
  <g fill="#FB923C" opacity="0.2">
    <polygon points="170,10 200,28 200,63 170,81 140,63 140,28"/>
    <polygon points="200,81 230,99 230,134 200,152 170,134 170,99"/>
  </g>
</svg>
